<svg xmlns="http://www.w3.org/2000/svg" width="800" height="600" viewBox="0 0 800 600">
  <defs>
    <linearGradient id="bg" x1="0%" y1="0%" x2="100%" y2="100%">
      <stop offset="0%" style="stop-color:#ff5c87;stop-opacity:1" />
      <stop offset="100%" style="stop-color:#ff7da3;stop-opacity:1" />
    </linearGradient>
  </defs>
  <rect width="800" height="600" fill="url(#bg)" />
  <!-- Decorative elements -->
  <rect x="60" y="60" width="680" height="480" rx="16" fill="none" stroke="#ffffff" stroke-opacity="0.15" stroke-width="2" />
  <rect x="80" y="80" width="640" height="440" rx="12" fill="#ffffff" fill-opacity="0.05" />
  <!-- Mock UI elements -->
  <rect x="120" y="140" width="200" height="12" rx="6" fill="#ffffff" fill-opacity="0.2" />
  <rect x="120" y="168" width="320" height="8" rx="4" fill="#ffffff" fill-opacity="0.1" />
  <rect x="120" y="190" width="260" height="8" rx="4" fill="#ffffff" fill-opacity="0.1" />
  <rect x="120" y="230" width="560" height="180" rx="8" fill="#ffffff" fill-opacity="0.08" />
  <!-- Fake UI rows inside the box -->
  <rect x="140" y="260" width="520" height="1" fill="#ffffff" fill-opacity="0.1" />
  <rect x="140" y="300" width="520" height="1" fill="#ffffff" fill-opacity="0.1" />
  <rect x="140" y="340" width="520" height="1" fill="#ffffff" fill-opacity="0.1" />
  <rect x="140" y="380" width="520" height="1" fill="#ffffff" fill-opacity="0.1" />
  <!-- Dots / indicators -->
  <circle cx="160" cy="280" r="5" fill="#ffffff" fill-opacity="0.3" />
  <circle cx="160" cy="320" r="5" fill="#ffffff" fill-opacity="0.2" />
  <circle cx="160" cy="360" r="5" fill="#ffffff" fill-opacity="0.15" />
  <!-- Title text -->
  <text x="400" y="490" font-family="system-ui, -apple-system, sans-serif" font-size="28" font-weight="700" fill="#ffffff" fill-opacity="0.8" text-anchor="middle">Arc</text>
  <text x="400" y="520" font-family="system-ui, -apple-system, sans-serif" font-size="16" font-weight="400" fill="#ffffff" fill-opacity="0.5" text-anchor="middle">Browser</text>
</svg>